<?xml version="1.0" standalone="no"?>
<!DOCTYPE svg PUBLIC "-//W3C//DTD SVG 20010904//EN"
 "http://www.w3.org/TR/2001/REC-SVG-20010904/DTD/svg10.dtd">
<svg version="1.0" xmlns="http://www.w3.org/2000/svg"
 width="400.000000pt" height="400.000000pt" viewBox="0 0 400.000000 400.000000"
 preserveAspectRatio="xMidYMid meet">
<metadata>
Created by potrace 1.11, written by Peter Selinger 2001-2013
</metadata>
<g transform="translate(0.000000,400.000000) scale(0.100000,-0.100000)"
fill="#000000" stroke="none">
<path d="M0 3888 l0 -113 110 110 c60 60 110 111 110 112 0 2 -49 3 -110 3
l-110 0 0 -112z"/>
<path d="M615 3820 l-180 -180 140 -140 139 -140 31 30 31 30 95 -97 c88 -90
97 -103 113 -162 l18 -64 449 449 c247 247 449 450 449 451 0 2 -249 3 -553 3
l-552 0 -180 -180z"/>
<path d="M2055 3860 l140 -140 -705 -705 c-388 -388 -710 -705 -716 -705 -6 0
-17 -7 -24 -15 -28 -34 -180 -124 -266 -159 -145 -57 -249 -58 -367 -2 l-52
25 -32 -31 -33 -32 0 -404 0 -404 339 331 c186 182 493 492 682 689 425 441
1008 1025 1401 1402 l297 285 -121 3 -122 3 -63 -63 c-47 -47 -63 -58 -63 -43
0 11 19 39 42 62 l42 43 -259 0 -260 0 140 -140z m-1317 -1612 c-129 -154
-370 -401 -540 -553 -170 -154 -104 -79 222 248 195 197 356 357 358 357 2 0
-16 -23 -40 -52z"/>
<path d="M2705 3860 l-140 -140 135 -135 135 -135 -121 -120 -120 -121 -129
140 -130 141 -86 -86 -87 -86 38 -72 c51 -94 79 -185 87 -274 l6 -74 81 80
c81 80 89 85 181 98 87 12 343 88 408 121 15 7 27 11 27 7 0 -3 11 1 25 10 14
9 25 14 25 10 0 -3 15 3 33 14 17 12 35 21 39 22 10 1 93 36 130 55 25 12 27
12 19 -3 -6 -9 -563 -570 -1240 -1247 -677 -676 -1231 -1230 -1231 -1231 0 -4
113 56 126 67 8 6 14 8 14 5 0 -4 14 2 30 14 17 12 30 18 30 15 0 -3 12 2 28
13 15 10 56 35 92 54 85 46 123 67 205 117 37 23 69 41 72 41 2 0 24 14 49 30
24 17 44 28 44 24 0 -3 6 -2 13 4 41 34 495 282 516 282 3 0 -179 -185 -404
-410 -268 -269 -400 -407 -380 -400 16 6 34 15 40 19 16 12 135 61 135 55 0
-2 12 2 28 9 46 24 143 55 249 81 108 26 283 44 283 30 0 -5 -185 -194 -411
-420 l-411 -411 59 -6 c66 -7 99 -13 113 -22 27 -17 86 -20 470 -22 l415 -3
49 49 48 49 -98 1 c-94 1 -368 42 -384 57 -2 3 134 143 303 312 l307 307 -142
143 -143 142 418 417 417 418 -140 140 -140 140 417 417 418 418 -108 108
-108 108 188 186 c103 103 209 204 234 225 26 21 75 63 110 94 35 30 85 71
112 89 l47 33 0 74 0 73 -578 0 -577 0 -140 -140z"/>
<path d="M3861 3346 c-73 -73 -129 -136 -125 -138 5 -3 32 -9 59 -13 28 -4 84
-20 124 -36 41 -15 76 -27 78 -25 2 2 2 80 1 175 l-3 171 -134 -134z"/>
<path d="M3840 2755 l-155 -155 140 -140 c187 -187 176 -197 173 173 l-3 277
-155 -155z"/>
<path d="M655 1810 l-360 -360 138 -137 137 -138 362 362 363 363 -135 135
c-74 74 -137 135 -140 135 -3 0 -167 -162 -365 -360z"/>
<path d="M3910 1190 c-97 -66 -243 -127 -322 -136 -68 -7 -154 8 -221 41 l-52
25 -379 -379 -379 -379 28 -68 c24 -57 29 -84 29 -154 1 -47 -2 -97 -7 -113
l-7 -27 194 0 c111 0 197 4 201 9 3 6 65 65 138 132 72 68 298 284 500 482
l368 360 -2 133 c0 74 -2 134 -2 133 -1 0 -40 -27 -87 -59z m49 -15 c-73 -101
-500 -524 -611 -604 -18 -13 118 127 302 312 184 186 336 337 338 337 2 0 -11
-20 -29 -45z"/>
<path d="M107 722 l-107 -107 0 -280 0 -280 250 250 250 250 -137 137 c-76 76
-140 138 -143 138 -3 0 -54 -48 -113 -108z"/>
<path d="M3750 564 c-244 -244 -370 -357 -549 -489 l-94 -70 162 -3 c155 -2
163 -2 208 22 52 28 66 27 38 -4 -16 -18 -16 -20 -1 -20 9 0 65 42 125 93 129
110 203 167 293 227 l67 45 1 223 c0 122 -1 222 -3 222 -1 0 -112 -111 -247
-246z"/>
</g>
</svg>
